<?xml version="1.0" encoding="utf-8"?>
<!-- Generator: Adobe Illustrator 26.5.0, SVG Export Plug-In . SVG Version: 6.00 Build 0)  -->
<svg version="1.1" id="Capa_1" xmlns="http://www.w3.org/2000/svg" xmlns:xlink="http://www.w3.org/1999/xlink" x="0px" y="0px"
	 viewBox="0 0 1150 1150" style="enable-background:new 0 0 1150 1150;" xml:space="preserve">
<style type="text/css">
	.st0{fill:#FFFFFF;}
</style>
<circle cx="574" cy="575" r="575"/>
<g>
	<path class="st0" d="M780.47,791.61c18.33-13.84,34.46-30.32,48.23-49.59c14.55-20.36,26.07-44.25,34.55-71.65
		c0.6-1.93,1.05-3.99,1.61-5.96v-96.32H582.64v82.92h185.48c-12.62,37.35-33.46,64.99-62.55,82.92
		c-29.09,17.95-69.35,26.92-120.74,26.92c-28.13,0-54.19-4-78.2-12.01c-24-8-44.73-19.87-62.19-35.64
		c-17.46-15.75-31.16-35.39-41.1-58.92c-9.94-23.51-14.91-51.03-14.91-82.56c0-18.42,2.91-38.42,8.73-60.01
		c5.82-21.57,16.36-41.7,31.64-60.37c15.27-18.66,36.12-34.18,62.55-46.55c26.43-12.37,60.49-18.55,102.2-18.55
		c30.55,0,55.52,3.4,74.92,10.18c19.39,6.8,35.03,14.91,46.92,24.37c11.87,9.46,20.84,19.28,26.91,29.46
		c6.06,10.19,10.55,18.68,13.46,25.46h105.47c-6.31-33.46-18.8-61.46-37.46-84.01c-18.67-22.55-40.86-40.85-66.56-54.92
		c-25.71-14.06-53.83-24.12-84.38-30.18c-30.55-6.06-61.1-9.09-91.65-9.09c-52.86,0-97.96,7.89-135.29,23.64
		c-37.35,15.76-67.9,36.62-91.65,62.55c-23.77,25.95-41.22,55.65-52.37,89.1c-11.16,33.46-16.73,67.9-16.73,103.29
		c0,34.92,4.24,66.08,12.73,93.47c8.48,27.4,20,51.29,34.55,71.65c14.55,20.36,31.64,37.71,51.28,52.01
		c19.64,14.31,40.48,25.83,62.56,34.55c22.06,8.73,44.97,15.02,68.74,18.91c23.75,3.88,46.79,5.82,69.1,5.82
		c25.7,0,48.61-1.94,68.74-5.82c20.12-3.89,38.06-8.97,53.83-15.27c15.75-6.3,29.7-12.97,41.82-20.01
		C760.04,804.69,770.67,798.1,780.47,791.61z"/>
</g>
</svg>
