<?xml version="1.0" encoding="utf-8"?>
<!-- Generator: Adobe Illustrator 26.5.0, SVG Export Plug-In . SVG Version: 6.00 Build 0)  -->
<svg version="1.1" id="Capa_1" xmlns="http://www.w3.org/2000/svg" xmlns:xlink="http://www.w3.org/1999/xlink" x="0px" y="0px"
	 viewBox="0 0 1150 1150" style="enable-background:new 0 0 1150 1150;" xml:space="preserve">
<style type="text/css">
	.st0{fill:#FFFFFF;}
</style>
<g>
	<g>
		<path class="st0" d="M285.22,498.73h29.79v152.53h-29.79V498.73z"/>
		<path class="st0" d="M338.5,498.73h31.89l57.28,121.69L486,498.73h31.89L443.2,651.26h-31.05L338.5,498.73z"/>
		<path class="st0" d="M539.5,498.73h136.79v25.6h-107v35.46h92.1v25.6h-92.1v40.28h109.52v25.6H539.5V498.73z"/>
		<path class="st0" d="M692.87,576.15c0-10.49,1.57-20.59,4.72-30.32c3.15-9.72,8.32-18.36,15.53-25.91
			c7.2-7.55,16.57-13.6,28.11-18.15c11.54-4.54,25.7-6.82,42.49-6.82s30.95,2.28,42.49,6.82c11.54,4.55,20.91,10.6,28.12,18.15
			c7.2,7.55,12.38,16.19,15.52,25.91c3.15,9.72,4.72,19.83,4.72,30.32c0,7.97-1.37,16.54-4.09,25.7
			c-2.73,9.16-7.48,17.69-14.26,25.6c-6.79,7.9-16.05,14.48-27.8,19.72c-11.75,5.24-26.65,7.87-44.69,7.87
			c-18.04,0-32.94-2.62-44.69-7.87c-11.75-5.24-21.02-11.82-27.8-19.72c-6.79-7.9-11.54-16.43-14.27-25.6
			C694.23,592.7,692.87,584.13,692.87,576.15z M783.71,629.45c7.13,0,14.34-0.84,21.61-2.52c7.27-1.68,13.81-4.61,19.62-8.81
			c5.8-4.2,10.56-9.82,14.27-16.89c3.7-7.06,5.56-15.98,5.56-26.75c0-9.23-1.54-17.2-4.61-23.92c-3.08-6.71-7.34-12.31-12.8-16.78
			c-5.46-4.47-11.93-7.8-19.41-9.97c-7.48-2.17-15.56-3.25-24.23-3.25c-8.67,0-16.75,1.08-24.23,3.25
			c-7.49,2.17-13.95,5.49-19.41,9.97c-5.46,4.48-9.72,10.07-12.8,16.78c-3.08,6.71-4.62,14.69-4.62,23.92
			c0,10.77,1.85,19.69,5.56,26.75c3.7,7.07,8.46,12.69,14.27,16.89c5.8,4.2,12.34,7.13,19.62,8.81
			C769.37,628.61,776.58,629.45,783.71,629.45z"/>
		<path class="st0" d="M900.78,498.73h31.47l101.97,110.15V498.73h28.53v152.53h-27.27L929.31,537.13v114.14h-28.53V498.73z"/>
		<path class="st0" d="M229.83,637.48c5.29-3.99,9.94-8.74,13.91-14.3c4.2-5.87,7.52-12.76,9.97-20.67c0.17-0.56,0.3-1.15,0.46-1.72
			v-27.78h-81.4v23.92h53.5c-3.64,10.77-9.65,18.75-18.04,23.92c-8.39,5.18-20,7.76-34.83,7.76c-8.11,0-15.63-1.15-22.56-3.46
			c-6.92-2.31-12.9-5.73-17.94-10.28c-5.04-4.54-8.99-10.21-11.85-16.99c-2.87-6.78-4.3-14.72-4.3-23.81
			c0-5.31,0.84-11.08,2.52-17.31c1.68-6.22,4.72-12.03,9.13-17.41c4.41-5.38,10.42-9.86,18.04-13.43
			c7.62-3.57,17.45-5.35,29.48-5.35c8.81,0,16.01,0.98,21.61,2.94c5.59,1.96,10.1,4.3,13.53,7.03c3.42,2.73,6.01,5.56,7.76,8.5
			c1.75,2.94,3.04,5.39,3.88,7.34h30.42c-1.82-9.65-5.42-17.73-10.81-24.23c-5.39-6.5-11.79-11.78-19.2-15.84
			c-7.41-4.05-15.53-6.96-24.34-8.71c-8.81-1.75-17.62-2.62-26.44-2.62c-15.25,0-28.26,2.28-39.02,6.82
			c-10.77,4.55-19.58,10.56-26.44,18.04c-6.86,7.48-11.89,16.05-15.11,25.7c-3.22,9.65-4.83,19.58-4.83,29.79
			c0,10.07,1.22,19.06,3.67,26.96c2.45,7.9,5.77,14.79,9.97,20.67c4.2,5.87,9.13,10.88,14.79,15c5.67,4.13,11.68,7.45,18.04,9.97
			c6.36,2.52,12.97,4.33,19.83,5.46c6.85,1.12,13.5,1.68,19.93,1.68c7.41,0,14.02-0.56,19.83-1.68c5.8-1.12,10.98-2.59,15.53-4.41
			c4.54-1.82,8.57-3.74,12.06-5.77C223.93,641.25,227,639.35,229.83,637.48z"/>
	</g>
	<path class="st0" d="M576,23.96c74.4,0,146.56,14.57,214.48,43.29c65.61,27.75,124.55,67.49,175.16,118.1
		c50.61,50.61,90.35,109.55,118.1,175.16c28.73,67.92,43.29,140.08,43.29,214.48s-14.57,146.56-43.29,214.48
		c-27.75,65.61-67.49,124.55-118.1,175.16c-50.61,50.61-109.55,90.35-175.16,118.1c-67.92,28.73-140.08,43.29-214.48,43.29
		s-146.56-14.57-214.48-43.29c-65.61-27.75-124.55-67.49-175.16-118.1c-50.61-50.61-90.35-109.55-118.1-175.16
		C39.53,721.56,24.96,649.4,24.96,575s14.57-146.56,43.29-214.48c27.75-65.61,67.49-124.55,118.1-175.16
		c50.61-50.61,109.55-90.35,175.16-118.1C429.44,38.53,501.6,23.96,576,23.96 M576,1C258.99,1,2,257.99,2,575s256.99,574,574,574
		s574-256.99,574-574S893.01,1,576,1L576,1z"/>
</g>
</svg>
